<mxfile host="Electron" modified="2023-07-23T16:33:57.217Z" agent="Mozilla/5.0 (X11; Linux x86_64) AppleWebKit/537.36 (KHTML, like Gecko) draw.io/21.6.5 Chrome/114.0.5735.243 Electron/25.3.1 Safari/537.36" etag="DQSxfEDC_VDfPVeE6H7y" version="21.6.5" type="device">
  <diagram name="Page-1" id="44I9hGHchTTdyHQQdCC0">
    <mxGraphModel dx="938" dy="581" grid="1" gridSize="10" guides="1" tooltips="1" connect="1" arrows="1" fold="1" page="1" pageScale="1" pageWidth="827" pageHeight="1169" math="1" shadow="0">
      <root>
        <mxCell id="0" />
        <mxCell id="1" parent="0" />
        <mxCell id="Sull-ByN69tNy64UvHHk-7" value="" style="rounded=1;whiteSpace=wrap;html=1;strokeColor=#000099;arcSize=10;" parent="1" vertex="1">
          <mxGeometry x="80" y="60" width="440" height="370" as="geometry" />
        </mxCell>
        <mxCell id="Sull-ByN69tNy64UvHHk-8" value="The layer normalization operation normalizes the activations from the previous layers&amp;nbsp;to accelerate the training process.The statistics for the normalization are computed across the neuron dimension. The mechanism of the acceleration has been studied widely, but there is a lack of consensus on it.&amp;nbsp;&lt;br&gt;&amp;nbsp;&amp;nbsp;" style="text;html=1;strokeColor=none;fillColor=none;align=left;verticalAlign=middle;whiteSpace=wrap;rounded=0;" parent="1" vertex="1">
          <mxGeometry x="110" y="120" width="390" height="80" as="geometry" />
        </mxCell>
        <mxCell id="Sull-ByN69tNy64UvHHk-13" value="&lt;font color=&quot;#000099&quot;&gt;Layer Normalization&lt;/font&gt;" style="rounded=1;whiteSpace=wrap;html=1;strokeColor=#000099;" parent="1" vertex="1">
          <mxGeometry x="189" y="70" width="240" height="30" as="geometry" />
        </mxCell>
        <mxCell id="uuogB0cIgwUyPvQ0T90z-114" value="&lt;font color=&quot;#0000cc&quot;&gt;Layer Norm Input&lt;br&gt;&lt;/font&gt;" style="text;html=1;align=center;verticalAlign=middle;resizable=0;points=[];autosize=1;strokeColor=none;fillColor=none;" parent="1" vertex="1">
          <mxGeometry x="115" y="320" width="120" height="30" as="geometry" />
        </mxCell>
        <mxCell id="9wk757iNqcKCBwZYC4eM-1" value="" style="group" parent="1" vertex="1" connectable="0">
          <mxGeometry x="110" y="210" width="130" height="105" as="geometry" />
        </mxCell>
        <mxCell id="uuogB0cIgwUyPvQ0T90z-97" value="&lt;font color=&quot;#000099&quot;&gt;x&lt;sub&gt;&lt;font style=&quot;font-size: 7px;&quot;&gt;0,0&lt;/font&gt;&lt;/sub&gt;&lt;/font&gt;" style="rounded=0;whiteSpace=wrap;html=1;strokeColor=#000099;" parent="9wk757iNqcKCBwZYC4eM-1" vertex="1">
          <mxGeometry width="40" height="20" as="geometry" />
        </mxCell>
        <mxCell id="uuogB0cIgwUyPvQ0T90z-104" value="&lt;font color=&quot;#000099&quot;&gt;x&lt;sub&gt;&lt;font style=&quot;font-size: 7px;&quot;&gt;1,0&lt;/font&gt;&lt;/sub&gt;&lt;/font&gt;" style="rounded=0;whiteSpace=wrap;html=1;strokeColor=#000099;" parent="9wk757iNqcKCBwZYC4eM-1" vertex="1">
          <mxGeometry y="20" width="40" height="20" as="geometry" />
        </mxCell>
        <mxCell id="uuogB0cIgwUyPvQ0T90z-105" value="&lt;font color=&quot;#000099&quot;&gt;x&lt;sub&gt;&lt;font style=&quot;font-size: 7px;&quot;&gt;L-1,1&lt;/font&gt;&lt;/sub&gt;&lt;/font&gt;" style="rounded=0;whiteSpace=wrap;html=1;strokeColor=#000099;" parent="9wk757iNqcKCBwZYC4eM-1" vertex="1">
          <mxGeometry y="85" width="40" height="20" as="geometry" />
        </mxCell>
        <mxCell id="uuogB0cIgwUyPvQ0T90z-106" value="" style="endArrow=none;dashed=1;html=1;dashPattern=1 3;strokeWidth=2;rounded=0;strokeColor=#000099;exitX=0.5;exitY=0;exitDx=0;exitDy=0;entryX=0.5;entryY=1;entryDx=0;entryDy=0;" parent="9wk757iNqcKCBwZYC4eM-1" edge="1">
          <mxGeometry width="50" height="50" relative="1" as="geometry">
            <mxPoint x="14.70999999999998" y="80" as="sourcePoint" />
            <mxPoint x="14.70999999999998" y="40" as="targetPoint" />
          </mxGeometry>
        </mxCell>
        <mxCell id="uuogB0cIgwUyPvQ0T90z-108" value="&lt;font color=&quot;#000099&quot;&gt;x&lt;sub&gt;&lt;font style=&quot;font-size: 7px;&quot;&gt;0,E-1&lt;/font&gt;&lt;/sub&gt;&lt;/font&gt;" style="rounded=0;whiteSpace=wrap;html=1;strokeColor=#000099;" parent="9wk757iNqcKCBwZYC4eM-1" vertex="1">
          <mxGeometry x="90" width="40" height="20" as="geometry" />
        </mxCell>
        <mxCell id="uuogB0cIgwUyPvQ0T90z-109" value="&lt;font color=&quot;#000099&quot;&gt;x&lt;sub&gt;&lt;font style=&quot;font-size: 7px;&quot;&gt;1,E-1&lt;/font&gt;&lt;/sub&gt;&lt;/font&gt;" style="rounded=0;whiteSpace=wrap;html=1;strokeColor=#000099;" parent="9wk757iNqcKCBwZYC4eM-1" vertex="1">
          <mxGeometry x="90" y="20" width="40" height="20" as="geometry" />
        </mxCell>
        <mxCell id="uuogB0cIgwUyPvQ0T90z-110" value="&lt;p style=&quot;line-height: 10%;&quot;&gt;&lt;font color=&quot;#000099&quot;&gt;x&lt;sub&gt;&lt;font style=&quot;font-size: 7px;&quot;&gt;L-1,E-1&lt;/font&gt;&lt;/sub&gt;&lt;/font&gt;&lt;/p&gt;" style="rounded=0;whiteSpace=wrap;html=1;strokeColor=#000099;" parent="9wk757iNqcKCBwZYC4eM-1" vertex="1">
          <mxGeometry x="90" y="85" width="40" height="20" as="geometry" />
        </mxCell>
        <mxCell id="uuogB0cIgwUyPvQ0T90z-111" value="" style="endArrow=none;dashed=1;html=1;dashPattern=1 3;strokeWidth=2;rounded=0;strokeColor=#000099;exitX=0.5;exitY=0;exitDx=0;exitDy=0;entryX=0.5;entryY=1;entryDx=0;entryDy=0;" parent="9wk757iNqcKCBwZYC4eM-1" edge="1">
          <mxGeometry width="50" height="50" relative="1" as="geometry">
            <mxPoint x="104.70999999999998" y="80" as="sourcePoint" />
            <mxPoint x="104.70999999999998" y="40" as="targetPoint" />
          </mxGeometry>
        </mxCell>
        <mxCell id="uuogB0cIgwUyPvQ0T90z-113" value="" style="endArrow=none;dashed=1;html=1;dashPattern=1 3;strokeWidth=2;rounded=0;strokeColor=#000099;" parent="9wk757iNqcKCBwZYC4eM-1" edge="1">
          <mxGeometry width="50" height="50" relative="1" as="geometry">
            <mxPoint x="52.5" y="20" as="sourcePoint" />
            <mxPoint x="80" y="20.07000000000005" as="targetPoint" />
          </mxGeometry>
        </mxCell>
        <mxCell id="9wk757iNqcKCBwZYC4eM-2" value="" style="shape=flexArrow;endArrow=classic;html=1;rounded=0;width=4.62962962962963;endSize=6.062037037037037;endWidth=5.4972565157750335;strokeColor=none;fillColor=#000099;" parent="1" edge="1">
          <mxGeometry width="50" height="50" relative="1" as="geometry">
            <mxPoint x="270" y="245" as="sourcePoint" />
            <mxPoint x="350" y="245" as="targetPoint" />
          </mxGeometry>
        </mxCell>
        <mxCell id="9wk757iNqcKCBwZYC4eM-4" value="&lt;font color=&quot;#000099&quot;&gt;$$y_{i, j} = \cfrac{x_{i, j} - \mu_{i}&lt;br&gt;&amp;nbsp;}{\sigma_{i}}$$&lt;/font&gt;" style="text;html=1;strokeColor=none;fillColor=none;align=center;verticalAlign=middle;whiteSpace=wrap;rounded=0;" parent="1" vertex="1">
          <mxGeometry x="280" y="265" width="60" height="30" as="geometry" />
        </mxCell>
        <mxCell id="9wk757iNqcKCBwZYC4eM-5" value="&lt;font color=&quot;#0000cc&quot;&gt;Layer Norm Output&lt;br&gt;&lt;/font&gt;" style="text;html=1;align=center;verticalAlign=middle;resizable=0;points=[];autosize=1;strokeColor=none;fillColor=none;" parent="1" vertex="1">
          <mxGeometry x="370" y="320" width="130" height="30" as="geometry" />
        </mxCell>
        <mxCell id="9wk757iNqcKCBwZYC4eM-6" value="" style="group" parent="1" vertex="1" connectable="0">
          <mxGeometry x="370" y="210" width="130" height="105" as="geometry" />
        </mxCell>
        <mxCell id="9wk757iNqcKCBwZYC4eM-7" value="&lt;font color=&quot;#000099&quot;&gt;y&lt;sub&gt;&lt;font style=&quot;font-size: 7px;&quot;&gt;0,0&lt;/font&gt;&lt;/sub&gt;&lt;/font&gt;" style="rounded=0;whiteSpace=wrap;html=1;strokeColor=#000099;" parent="9wk757iNqcKCBwZYC4eM-6" vertex="1">
          <mxGeometry width="40" height="20" as="geometry" />
        </mxCell>
        <mxCell id="9wk757iNqcKCBwZYC4eM-8" value="&lt;font color=&quot;#000099&quot;&gt;y&lt;sub&gt;&lt;font style=&quot;font-size: 7px;&quot;&gt;1,0&lt;/font&gt;&lt;/sub&gt;&lt;/font&gt;" style="rounded=0;whiteSpace=wrap;html=1;strokeColor=#000099;" parent="9wk757iNqcKCBwZYC4eM-6" vertex="1">
          <mxGeometry y="20" width="40" height="20" as="geometry" />
        </mxCell>
        <mxCell id="9wk757iNqcKCBwZYC4eM-9" value="&lt;font color=&quot;#000099&quot;&gt;y&lt;sub&gt;&lt;font style=&quot;font-size: 7px;&quot;&gt;L-1,1&lt;/font&gt;&lt;/sub&gt;&lt;/font&gt;" style="rounded=0;whiteSpace=wrap;html=1;strokeColor=#000099;" parent="9wk757iNqcKCBwZYC4eM-6" vertex="1">
          <mxGeometry y="85" width="40" height="20" as="geometry" />
        </mxCell>
        <mxCell id="9wk757iNqcKCBwZYC4eM-10" value="" style="endArrow=none;dashed=1;html=1;dashPattern=1 3;strokeWidth=2;rounded=0;strokeColor=#000099;exitX=0.5;exitY=0;exitDx=0;exitDy=0;entryX=0.5;entryY=1;entryDx=0;entryDy=0;" parent="9wk757iNqcKCBwZYC4eM-6" edge="1">
          <mxGeometry width="50" height="50" relative="1" as="geometry">
            <mxPoint x="14.70999999999998" y="80" as="sourcePoint" />
            <mxPoint x="14.70999999999998" y="40" as="targetPoint" />
          </mxGeometry>
        </mxCell>
        <mxCell id="9wk757iNqcKCBwZYC4eM-11" value="&lt;font color=&quot;#000099&quot;&gt;y&lt;sub&gt;&lt;font style=&quot;font-size: 7px;&quot;&gt;0,E-1&lt;/font&gt;&lt;/sub&gt;&lt;/font&gt;" style="rounded=0;whiteSpace=wrap;html=1;strokeColor=#000099;" parent="9wk757iNqcKCBwZYC4eM-6" vertex="1">
          <mxGeometry x="90" width="40" height="20" as="geometry" />
        </mxCell>
        <mxCell id="9wk757iNqcKCBwZYC4eM-12" value="&lt;font color=&quot;#000099&quot;&gt;y&lt;sub&gt;&lt;font style=&quot;font-size: 7px;&quot;&gt;1,E-1&lt;/font&gt;&lt;/sub&gt;&lt;/font&gt;" style="rounded=0;whiteSpace=wrap;html=1;strokeColor=#000099;" parent="9wk757iNqcKCBwZYC4eM-6" vertex="1">
          <mxGeometry x="90" y="20" width="40" height="20" as="geometry" />
        </mxCell>
        <mxCell id="9wk757iNqcKCBwZYC4eM-13" value="&lt;p style=&quot;line-height: 10%;&quot;&gt;&lt;font color=&quot;#000099&quot;&gt;y&lt;sub&gt;&lt;font style=&quot;font-size: 7px;&quot;&gt;L-1,E-1&lt;/font&gt;&lt;/sub&gt;&lt;/font&gt;&lt;/p&gt;" style="rounded=0;whiteSpace=wrap;html=1;strokeColor=#000099;" parent="9wk757iNqcKCBwZYC4eM-6" vertex="1">
          <mxGeometry x="90" y="85" width="40" height="20" as="geometry" />
        </mxCell>
        <mxCell id="9wk757iNqcKCBwZYC4eM-14" value="" style="endArrow=none;dashed=1;html=1;dashPattern=1 3;strokeWidth=2;rounded=0;strokeColor=#000099;exitX=0.5;exitY=0;exitDx=0;exitDy=0;entryX=0.5;entryY=1;entryDx=0;entryDy=0;" parent="9wk757iNqcKCBwZYC4eM-6" edge="1">
          <mxGeometry width="50" height="50" relative="1" as="geometry">
            <mxPoint x="104.70999999999998" y="80" as="sourcePoint" />
            <mxPoint x="104.70999999999998" y="40" as="targetPoint" />
          </mxGeometry>
        </mxCell>
        <mxCell id="9wk757iNqcKCBwZYC4eM-15" value="" style="endArrow=none;dashed=1;html=1;dashPattern=1 3;strokeWidth=2;rounded=0;strokeColor=#000099;" parent="9wk757iNqcKCBwZYC4eM-6" edge="1">
          <mxGeometry width="50" height="50" relative="1" as="geometry">
            <mxPoint x="52.5" y="20" as="sourcePoint" />
            <mxPoint x="80" y="20.07000000000005" as="targetPoint" />
          </mxGeometry>
        </mxCell>
        <mxCell id="9wk757iNqcKCBwZYC4eM-20" value="" style="group" parent="1" vertex="1" connectable="0">
          <mxGeometry x="134" y="350" width="345" height="70" as="geometry" />
        </mxCell>
        <mxCell id="9wk757iNqcKCBwZYC4eM-16" value="&lt;font color=&quot;#000099&quot;&gt;$$\mu_{i} = \cfrac{1}{E} \sum_{j=0}^{E-1} x_{i, j} $$&lt;/font&gt;" style="text;html=1;strokeColor=none;fillColor=none;align=center;verticalAlign=middle;whiteSpace=wrap;rounded=0;" parent="9wk757iNqcKCBwZYC4eM-20" vertex="1">
          <mxGeometry x="39" y="18" width="110" height="40" as="geometry" />
        </mxCell>
        <mxCell id="9wk757iNqcKCBwZYC4eM-17" value="&lt;font color=&quot;#000099&quot;&gt;$$\sigma_{i} = \sqrt{\cfrac{1}{E} \sum_{j=0}^{E - 1} (x_{i, j} - \mu_{i})^2}$$&lt;/font&gt;" style="text;html=1;strokeColor=none;fillColor=none;align=center;verticalAlign=middle;whiteSpace=wrap;rounded=0;" parent="9wk757iNqcKCBwZYC4eM-20" vertex="1">
          <mxGeometry x="155" width="190" height="70" as="geometry" />
        </mxCell>
        <mxCell id="9wk757iNqcKCBwZYC4eM-18" value="&lt;font color=&quot;#000099&quot;&gt;and&lt;/font&gt;" style="text;html=1;align=center;verticalAlign=middle;resizable=0;points=[];autosize=1;strokeColor=none;fillColor=none;" parent="9wk757iNqcKCBwZYC4eM-20" vertex="1">
          <mxGeometry x="136" y="22" width="40" height="30" as="geometry" />
        </mxCell>
        <mxCell id="9wk757iNqcKCBwZYC4eM-19" value="&lt;font color=&quot;#000099&quot;&gt;Here,&amp;nbsp;&lt;/font&gt;" style="text;html=1;align=center;verticalAlign=middle;resizable=0;points=[];autosize=1;strokeColor=none;fillColor=none;" parent="9wk757iNqcKCBwZYC4eM-20" vertex="1">
          <mxGeometry y="23" width="60" height="30" as="geometry" />
        </mxCell>
      </root>
    </mxGraphModel>
  </diagram>
</mxfile>
